<svg xmlns="http://www.w3.org/2000/svg"  viewBox="0 0 100 100" width="100px" height="100px"><path d="M 20 11 A 2.0002 2.0002 0 0 0 18.060547 12.515625 C 12.421513 35.073781 9.3812599 63.53815 12.289062 83.169922 A 2.0002 2.0002 0 0 0 12.296875 83.224609 C 12.884061 86.545004 15.804524 88.982178 19.175781 88.966797 C 38.684632 88.93709 58.838875 89.647427 76.300781 85.978516 C 76.338175 85.970659 76.376694 85.964928 76.414062 85.957031 A 2.0002 2.0002 0 0 0 76.457031 85.945312 A 2.0007727 2.0007727 0 0 0 76.576172 85.916016 C 76.576172 85.916016 76.606896 85.906408 76.607422 85.90625 C 76.631687 85.898954 77.182501 85.733725 78.054688 85.472656 A 2.0002 2.0002 0 0 0 78.054688 85.470703 C 83.978812 83.693581 88.202944 78.432036 88.654297 72.263672 L 88.654297 72.259766 C 89.692477 58.40832 90.703166 44.415996 90.5 27.974609 A 2.0002 2.0002 0 0 0 88.445312 26 C 83.230314 26.142019 78.491548 25.900391 74.271484 25.261719 C 74.481351 21.96578 74.714324 18.613176 74.994141 15.162109 A 2.0002 2.0002 0 0 0 72.875 13.003906 C 57.216746 13.982547 39.210526 11 20 11 z M 21.615234 15.052734 C 38.976824 15.209298 55.60804 17.642314 70.880859 17.017578 C 69.519038 34.637209 69.017875 50.472115 69.501953 62.332031 C 69.754553 68.520734 70.253575 73.656071 71.039062 77.550781 C 71.431806 79.498136 71.891883 81.136275 72.478516 82.488281 C 72.480716 82.493381 72.484128 82.496883 72.486328 82.501953 C 71.843348 82.616966 71.190057 82.717607 70.539062 82.822266 L 69.791016 80.970703 A 1.0001 1.0001 0 0 0 68.857422 80.332031 A 1.0001 1.0001 0 0 0 67.935547 81.720703 L 68.505859 83.132812 C 67.568457 83.267179 66.62389 83.39416 65.671875 83.509766 L 64.986328 79.400391 A 1.0001 1.0001 0 0 0 64.017578 78.550781 A 1.0001 1.0001 0 0 0 63.013672 79.728516 L 63.681641 83.738281 C 62.865842 83.826017 62.04388 83.904619 61.21875 83.980469 L 61.449219 83.337891 A 1.0001 1.0001 0 0 0 60.542969 81.986328 A 1.0001 1.0001 0 0 0 59.566406 82.662109 L 59.025391 84.169922 C 58.129615 84.240978 57.23136 84.307994 56.326172 84.367188 L 56.96875 82.373047 A 1.0001 1.0001 0 0 0 56.017578 81.052734 A 1.0001 1.0001 0 0 0 55.064453 81.759766 L 54.183594 84.496094 C 53.077623 84.557475 51.953596 84.595704 50.835938 84.642578 L 51.845703 82.21875 A 1.0001 1.0001 0 0 0 50.90625 80.820312 A 1.0001 1.0001 0 0 0 49.998047 81.449219 L 48.632812 84.728516 C 47.404956 84.770426 46.174537 84.809453 44.935547 84.837891 L 45.791016 83.554688 A 1.0001 1.0001 0 0 0 44.939453 81.988281 A 1.0001 1.0001 0 0 0 44.126953 82.445312 L 42.5 84.884766 C 41.635834 84.899313 40.780339 84.925717 39.912109 84.935547 L 40.832031 83.554688 A 1.0001 1.0001 0 0 0 39.980469 81.988281 A 1.0001 1.0001 0 0 0 39.167969 82.445312 L 37.498047 84.949219 C 36.544823 84.956008 35.591437 84.961768 34.634766 84.964844 L 35.894531 82.447266 A 1.0001 1.0001 0 0 0 34.955078 80.988281 A 1.0001 1.0001 0 0 0 34.105469 81.552734 L 32.394531 84.974609 C 31.184339 84.975774 29.967197 84.974141 28.753906 84.972656 L 30.853516 81.519531 A 1.0001 1.0001 0 0 0 30.039062 79.988281 A 1.0001 1.0001 0 0 0 29.146484 80.480469 L 26.416016 84.970703 C 25.239357 84.968718 24.065826 84.969929 22.888672 84.96875 L 24.832031 82.054688 A 1.0001 1.0001 0 0 0 23.980469 80.488281 A 1.0001 1.0001 0 0 0 23.167969 80.945312 L 20.486328 84.966797 C 20.04524 84.966981 19.604944 84.966122 19.164062 84.966797 A 2.0002 2.0002 0 0 0 19.158203 84.966797 C 18.091293 84.971662 17.155575 84.420433 16.632812 83.560547 L 19.78125 79.625 A 1.0001 1.0001 0 0 0 18.96875 77.990234 A 1.0001 1.0001 0 0 0 18.21875 78.375 L 16.058594 81.074219 C 13.711358 62.851303 16.468509 36.347499 21.615234 15.052734 z M 26.931641 21.498047 A 2.0002 2.0002 0 0 0 26.785156 25.492188 C 37.064164 26.384006 48.331769 27.018084 62.001953 27 A 2.0002 2.0002 0 1 0 61.998047 23 C 48.454225 23.017916 37.323805 22.391994 27.132812 21.507812 A 2.0002 2.0002 0 0 0 26.931641 21.498047 z M 74.025391 29.265625 C 77.846134 29.805979 82.026165 30.002754 86.460938 29.96875 C 86.463861 30.432993 86.457852 30.879197 86.458984 31.339844 L 81.580078 33.591797 A 1.0005834 1.0005834 0 0 0 82.419922 35.408203 L 86.455078 33.544922 C 86.449671 35.042525 86.436847 36.523439 86.414062 37.986328 L 81.525391 40.619141 A 1.000583 1.000583 0 1 0 82.474609 42.380859 L 86.375 40.279297 C 86.344908 41.675124 86.30552 43.051235 86.261719 44.419922 L 82.585938 46.089844 A 1.0001 1.0001 0 1 0 83.414062 47.910156 L 86.191406 46.648438 C 86.132864 48.217569 86.065654 49.766649 85.992188 51.306641 L 81.996094 53.636719 A 1.0001 1.0001 0 1 0 83.003906 55.363281 L 85.859375 53.697266 C 85.779977 55.206783 85.689937 56.694889 85.599609 58.183594 L 79.628906 60.572266 A 1.0001 1.0001 0 1 0 80.371094 62.427734 L 85.470703 60.388672 C 85.375503 61.874802 85.278411 63.357406 85.175781 64.830078 L 81.986328 66.742188 A 1.0001 1.0001 0 1 0 83.013672 68.457031 L 85.001953 67.265625 C 84.902229 68.650051 84.808146 70.044523 84.705078 71.423828 L 81.878906 73.119141 A 1.0001 1.0001 0 1 0 82.908203 74.833984 L 84.320312 73.988281 C 83.357512 77.609132 80.590082 80.535547 76.90625 81.640625 C 76.720832 81.696126 76.754489 81.685503 76.597656 81.732422 C 76.457123 81.517254 76.30292 81.255066 76.146484 80.894531 C 75.733117 79.94185 75.318193 78.533114 74.960938 76.761719 C 74.246425 73.218929 73.745447 68.229266 73.498047 62.167969 C 73.133595 53.23891 73.31151 41.954202 74.025391 29.265625 z M 23.988281 30.5 A 1.0001 1.0001 0 0 0 23.025391 31.279297 C 21.090357 39.858382 20.396769 47.304602 20.5 54.015625 A 1.0001 1.0001 0 0 0 21.5 55 L 40 55 A 1.0001 1.0001 0 0 0 40.998047 54.046875 L 41.998047 33.046875 A 1.0001 1.0001 0 0 0 41.087891 32.003906 L 24.087891 30.503906 A 1.0001 1.0001 0 0 0 23.988281 30.5 z M 24.830078 32.578125 L 32.140625 33.222656 L 31.21875 34.375 A 1.0004882 1.0004882 0 1 0 32.78125 35.625 L 34.535156 33.433594 L 36.71875 33.626953 L 35.318359 35.375 A 1.0004882 1.0004882 0 1 0 36.880859 36.625 L 39.111328 33.837891 L 39.957031 33.912109 L 39.849609 36.134766 A 1.0001 1.0001 0 0 0 39.841797 36.140625 L 37.429688 38.246094 A 1.0008024 1.0008024 0 1 0 38.746094 39.753906 L 39.71875 38.904297 L 39.646484 40.416016 L 37.429688 42.351562 A 1.0008028 1.0008028 0 1 0 38.746094 43.859375 L 39.513672 43.189453 L 39.046875 53 L 22.546875 53 C 22.522445 46.931873 23.166963 40.234643 24.830078 32.578125 z M 65.015625 32.998047 A 1.0001 1.0001 0 0 0 64.845703 33.011719 C 59.088674 33.907171 52.937176 34.371701 46.480469 34.5 A 1.0001907 1.0001907 0 1 0 46.519531 36.5 C 53.046824 36.370299 59.287326 35.900831 65.154297 34.988281 A 1.0001 1.0001 0 0 0 65.015625 32.998047 z M 25.822266 40.001953 C 25.531141 40.021828 25.249469 40.153625 25.042969 40.390625 C 24.629969 40.864625 24.678344 41.585047 25.152344 41.998047 C 25.626344 42.411047 26.346766 42.362672 26.759766 41.888672 C 27.172766 41.414672 27.124391 40.692297 26.650391 40.279297 C 26.413391 40.072797 26.113391 39.982078 25.822266 40.001953 z M 65.037109 45.498047 A 1.0001 1.0001 0 0 0 64.867188 45.509766 C 57.773849 46.460378 51.922396 46.723741 46.449219 47.001953 A 1.0001 1.0001 0 1 0 46.550781 48.998047 C 52.015604 48.720259 57.94415 48.453622 65.132812 47.490234 A 1.0001 1.0001 0 0 0 65.037109 45.498047 z M 32.783203 48.048828 C 32.492078 48.068828 32.208453 48.198547 32.001953 48.435547 C 31.588953 48.909547 31.637328 49.631922 32.111328 50.044922 C 32.585328 50.457922 33.307703 50.407594 33.720703 49.933594 C 34.133703 49.459594 34.083375 48.739172 33.609375 48.326172 C 33.372375 48.119172 33.074328 48.028828 32.783203 48.048828 z M 25.482422 48.429688 C 25.191422 48.449687 24.908172 48.579406 24.701172 48.816406 C 24.288172 49.290406 24.336547 50.012781 24.810547 50.425781 C 25.284547 50.838781 26.006922 50.788453 26.419922 50.314453 C 26.832922 49.840453 26.782594 49.120031 26.308594 48.707031 C 26.071594 48.500031 25.773422 48.409688 25.482422 48.429688 z M 64.496094 59.498047 A 1.0001 1.0001 0 0 0 64.425781 59.501953 C 49.537332 60.60366 35.04597 61.281333 20.984375 61.5 A 1.0001221 1.0001221 0 1 0 21.015625 63.5 C 35.12003 63.280667 49.650662 62.602346 64.574219 61.498047 A 1.0007627 1.0007627 0 0 0 64.496094 59.498047 z M 65.017578 68.998047 A 1.0001 1.0001 0 0 0 64.847656 69.011719 C 51.992386 70.989454 33.004779 70.985532 20.835938 73.013672 A 1.0001 1.0001 0 1 0 21.164062 74.986328 C 32.99522 73.014468 52.007611 73.010548 65.152344 70.988281 A 1.0001 1.0001 0 0 0 65.017578 68.998047 z"/></svg>